<?xml version="1.0" encoding="utf-8"?>
<!-- Generator: Adobe Illustrator 25.2.1, SVG Export Plug-In . SVG Version: 6.00 Build 0)  -->
<svg version="1.1" id="Layer_1" xmlns="http://www.w3.org/2000/svg" xmlns:xlink="http://www.w3.org/1999/xlink" x="0px" y="0px"
	 viewBox="0 0 612 792" style="enable-background:new 0 0 612 792;" xml:space="preserve">
<style type="text/css">
	.st0{fill:none;}
	.st1{fill:#0160AD;}
</style>
<g>
	<rect x="10.48" y="232.11" class="st0" width="601.52" height="269.57"/>
	<path class="st1" d="M84.2,397.3l7.1-8.36c4.91,4.68,11.51,7.83,17.89,7.83c7.73,0,11.97-3.51,11.97-8.86
		c0-5.65-4.43-7.46-10.67-10.1l-9.39-4.07c-6.76-2.81-13.88-8.17-13.88-18.21c0-10.94,9.66-19.36,23.06-19.36
		c8.02,0,15.79,3.32,21.17,8.76l-6.26,7.73c-4.37-3.72-9.03-5.9-14.91-5.9c-6.51,0-10.75,3.04-10.75,8.06
		c0,5.4,5.23,7.39,10.92,9.72l9.26,3.88c8.17,3.4,13.88,8.57,13.88,18.52c0,11.13-9.24,20.41-24.65,20.41
		C99.66,407.36,90.71,403.71,84.2,397.3z"/>
	<path class="st1" d="M143.04,380.35c0-17.18,11.68-27.09,24.53-27.09c12.85,0,24.53,9.91,24.53,27.09c0,17.09-11.68,27-24.53,27
		C154.72,407.36,143.04,397.45,143.04,380.35z M179.67,380.35c0-10.33-4.54-17.22-12.1-17.22c-7.56,0-12.1,6.89-12.1,17.22
		s4.54,17.14,12.1,17.14C175.13,397.49,179.67,390.69,179.67,380.35z"/>
	<path class="st1" d="M236.32,388.71v-24.57h-36.16v-9.07l7.56-0.55h29.23l1.43-14.07h10.04v14.07h13.15v9.62h-13.15v24.55
		c0,6.07,2.35,9.05,7.31,9.05c1.76,0,3.86-0.59,5.38-1.18l2.06,8.9c-2.81,0.92-6.4,1.89-10.54,1.89
		C240.73,407.36,236.32,399.84,236.32,388.71z M207.09,349.19c0-10.69,4.91-18.52,17.09-18.52c3.74,0,7.14,0.88,9.45,1.81
		l-2.31,9.03c-1.85-0.8-3.82-1.22-5.59-1.22c-4.28,0-6.55,2.71-6.55,8.69v57.12h-12.1V349.19z"/>
	<path class="st1" d="M271.25,371.49c0-22.22,12.39-35.32,30.28-35.32c17.89,0,30.28,13.17,30.28,35.32
		c0,22.22-12.39,35.87-30.28,35.87C283.64,407.36,271.25,393.71,271.25,371.49z M319.29,371.49c0-15.41-6.97-24.74-17.77-24.74
		c-10.79,0-17.77,9.32-17.77,24.74c0,15.41,6.97,25.28,17.77,25.28C312.32,396.78,319.29,386.91,319.29,371.49z"/>
	<path class="st1" d="M341.23,352.16l7.99-0.58h56.16v10.17h-64.15V352.16z M348.56,346.83c0-11.23,5.73-19.36,18.87-19.36
		c4.13,0,8.04,0.87,10.66,2l-2.44,9.54c-2.04-0.93-4-1.38-6.84-1.38c-4.53,0-7.46,3.11-7.46,9.23v59.23h-12.79V346.83z
		 M381.94,345.94c0-11.3,5.19-19.58,18.07-19.58c3.95,0,7.55,0.93,9.99,1.91l-2.44,9.55c-1.95-0.84-4.04-1.29-5.9-1.29
		c-4.53,0-6.93,2.86-6.93,9.19v60.38h-12.79V345.94z"/>
	<path class="st1" d="M414.6,338.65c0-4.07,3.19-6.85,7.48-6.85s7.48,2.77,7.48,6.85c0,3.99-3.19,6.85-7.48,6.85
		S414.6,342.64,414.6,338.65z M415.98,354.53h12.1v51.57h-12.1V354.53z"/>
	<path class="st1" d="M441.46,380.35c0-17.18,12.14-27.09,25.87-27.09c6.55,0,11.34,2.52,15.08,5.8l-5.88,7.85
		c-2.73-2.39-5.33-3.78-8.57-3.78c-8.32,0-14.07,6.89-14.07,17.22s5.67,17.14,13.69,17.14c4.03,0,7.73-1.97,10.67-4.45l4.91,7.98
		c-4.83,4.28-10.96,6.34-16.84,6.34C452.25,407.36,441.46,397.45,441.46,380.35z"/>
	<path class="st1" d="M491.5,379.37c0-17.4,12.08-28.12,24.68-28.12c14.47,0,22.1,10.46,22.1,25.42c0,2.4-0.26,4.8-0.54,6.1h-33.98
		c1.05,9.5,7.15,14.91,15.78,14.91c4.58,0,8.5-1.44,12.42-3.88l4.27,7.8c-5.1,3.44-11.55,5.8-18.35,5.8
		C503.09,407.41,491.5,397.03,491.5,379.37z M527.42,374.23c0-8.24-3.66-13.25-10.99-13.25c-6.23,0-11.73,4.66-12.82,13.25H527.42z"
		/>
</g>
<g>
	<rect x="580.04" y="237.87" class="st0" width="0.87" height="2.61"/>
</g>
<g>
	<rect x="453.09" y="71.78" class="st0" width="1.74" height="2.61"/>
</g>
<g>
</g>
<g>
</g>
<g>
</g>
<g>
</g>
<g>
</g>
<g>
</g>
</svg>
